<svg preserveAspectRatio="none" width="100%" height="100%" overflow="visible" style="display: block;" viewBox="0 0 42 44" fill="none" xmlns="http://www.w3.org/2000/svg">
<path id="Vector" d="M19.5847 12.2301C20.6132 12.0506 24.8567 9.53558 25.9706 8.92162L42 0C36.3199 5.73992 30.4514 10.7494 25.6792 17.3369C23.7063 20.0614 21.0565 22.9172 18.9191 25.5805C20.4713 25.0782 25.143 23.5519 26.4779 23.4932L25.9517 24.3824C25.2271 24.7718 21.4822 27.775 20.5253 28.497L7.41946 38.4646C5.49427 39.937 1.92016 42.8137 0 44C2.62971 40.7332 5.31467 37.5104 8.05238 34.3328C9.86706 32.2317 11.8086 30.1573 13.5831 28.0435L11.8362 28.5081C13.4236 26.541 15.2043 24.6347 16.7189 22.6183C18.9756 19.6153 21.1268 16.6077 23.4162 13.62C21.8138 14.1681 20.6019 14.5453 18.948 14.8938C19.1451 13.9672 19.3172 13.1419 19.5847 12.2301Z" fill="var(--fill-0, #EB2026)"/>
</svg>
